<svg width="1180.5" height="680.2" viewBox="0 0 1180.5 680.2" xmlns="http://www.w3.org/2000/svg" xmlns:xlink="http://www.w3.org/1999/xlink" overflow="hidden"><defs></defs><rect x="19" y="20.1" width="350" height="20" fill="none"/><g transform="translate(-0.5 -0.5)"><text font-family="Arial-BoldMT" font-size="12" transform="translate(21.5 34.1102)">Emrolab Service Infrastructure</text></g><path d="M40.5 210.1 142.5 210.1C147.5 210.1 151.5 214.1 151.5 219.1L151.5 261.1C151.5 266.1 147.5 270.1 142.5 270.1L40.5 270.1C35.5 270.1 31.5 266.1 31.5 261.1L31.5 219.1C31.5 214.1 35.5 210.1 40.5 210.1Z" stroke="#000000" fill="#FFFFFF"/><g transform="translate(-0.5 -0.5)"><text font-family="ArialMT" font-size="12" transform="translate(74.1621 244.11)">User...</text></g><rect x="251.5" y="160.1" width="30" height="380" stroke="#000000" fill="#FFFFFF"/><rect x="214" y="130.1" width="105" height="20" fill="none"/><g transform="translate(-0.5 -0.5)"><text font-family="ArialMT" font-size="12" transform="translate(184.465 144.11)">Load Balancing, Reverse proxy</text></g><path d="M328.5 210.1 430.5 210.1C435.5 210.1 439.5 214.1 439.5 219.1L439.5 261.1C439.5 266.1 435.5 270.1 430.5 270.1L328.5 270.1C323.5 270.1 319.5 266.1 319.5 261.1L319.5 219.1C319.5 214.1 323.5 210.1 328.5 210.1Z" stroke="#000000" fill="#FFFFFF"/><g transform="translate(-0.5 -0.5)"><text font-family="ArialMT" font-size="12" transform="translate(343.274 244.11)">MQTT Broker</text></g><path d="M151.5 240.1 313.1 240.1" stroke="#6C8EBF" stroke-miterlimit="10" fill="none"/><path d="M318.4 240.1 311.4 243.6 313.2 240.1 311.4 236.6 318.4 240.1Z" stroke="#6C8EBF" stroke-miterlimit="10" fill="#6C8EBF"/><rect x="174" y="220.1" width="40" height="20" fill="none"/><g transform="translate(-0.5 -0.5)"><text font-family="ArialMT" font-size="12" transform="translate(168.505 234.11)">MQTT/ws</text></g><path d="M349.5 270.1 349.5 320.1C349.5 326.8 346.2 330.1 339.5 330.1L101.5 330.1C94.8 330.1 91.5 326.8 91.5 320.1L91.5 276.5" stroke="#B85450" stroke-miterlimit="10" fill="none"/><path d="M91.5 271.2 95 278.2 91.5 276.4 88 278.2 91.5 271.2Z" stroke="#B85450" stroke-miterlimit="10" fill="#B85450"/><rect x="111.5" y="350.1" width="40" height="20" fill="none"/><g transform="translate(-0.5 -0.5)"><text font-family="ArialMT" font-size="12" transform="translate(105.505 364.11)">MQTT/ws</text></g><rect x="256.5" y="600.1" width="905" height="60" stroke="#000000" fill="#FFFFFF"/><g transform="translate(-0.5 -0.5)"><text font-family="ArialMT" font-size="12" transform="translate(608.467 634.11)">Docker Swarm oder Docker Compose</text></g><g><g><path d="M1180 675.7 1180 679.7 1176 679.7" stroke="#000000" stroke-miterlimit="10" fill="none"/><line x1="1168" y1="679.7" x2="8.5" y2="679.7" stroke="#000000" stroke-miterlimit="10" stroke-dasharray="7.9694 7.9694" fill="none"/><path d="M4.5 679.7 0.5 679.7 0.5 675.7" stroke="#000000" stroke-miterlimit="10" fill="none"/><line x1="0.5" y1="667.6" x2="0.5" y2="8.5" stroke="#000000" stroke-miterlimit="10" stroke-dasharray="8.087 8.087" fill="none"/><path d="M0.5 4.5 0.5 0.5 4.5 0.5" stroke="#000000" stroke-miterlimit="10" fill="none"/><line x1="12.5" y1="0.5" x2="1172" y2="0.5" stroke="#000000" stroke-miterlimit="10" stroke-dasharray="7.9694 7.9694" fill="none"/><path d="M1176 0.5 1180 0.5 1180 4.5" stroke="#000000" stroke-miterlimit="10" fill="none"/><line x1="1180" y1="12.6" x2="1180" y2="671.7" stroke="#000000" stroke-miterlimit="10" stroke-dasharray="8.087 8.087" fill="none"/></g></g></svg>